<svg width="228" height="270" viewBox="0 0 228 270" fill="none" xmlns="http://www.w3.org/2000/svg">
<g clip-path="url(#clip0_1_2)">
<path d="M66.5941 217.547C86.8128 222.209 106.688 226.086 127.496 226.822C136.722 227.166 145.015 225.448 152.965 221.228C162.878 216.075 170.583 209.008 179.318 201.598C173.871 209.597 167.344 215.879 159.934 221.915C145.751 233.447 131.078 243.606 114.736 251.85C97.3147 241.839 81.66 230.895 66.5941 217.547Z" fill="white"/>
<path d="M113.804 59.7236C117.583 65.4653 126.907 60.5088 133.237 62.9135C129.459 71.4034 138.979 53.9328 145.751 59.2329C148.058 61.0486 149.677 66.8394 148.696 69.6858C145.212 74.8386 131.569 73.6117 121.018 77.2432C112.675 80.0895 105.461 78.7155 97.2168 76.8997C92.113 75.771 87.0093 76.0164 82.1018 73.3663C84.8991 76.8506 88.3833 78.8627 92.8 80.8747C87.5 91.1313 84.9972 102.418 87.7945 113.804C89.9537 122.49 101.683 131.863 100.799 145.31C96.2843 156.008 92.8982 167.197 95.3519 178.975C97.4621 169.307 99.4251 160.621 103.4 152.033C114.491 128.133 142.66 125.287 160.866 137.31L173.282 145.506C169.7 139.47 164.989 135.74 159.59 131.471C164.252 127.397 169.013 123.864 174.166 120.576C185.502 114.344 197.819 111.448 211.07 113.166V39.7503C178.288 33.0762 146.586 26.1567 114.736 17.4214C95.6954 22.6233 77.5379 26.9419 58.3988 31.0151L16.98 39.8485V115.718C16.98 128.526 20.0717 140.353 22.5745 152.376L17.2254 177.453C5.34934 157.186 -0.245154 134.955 0.000218047 111.644V26.4511C38.8672 18.8446 76.4583 10.0112 114.295 0C152.475 9.96212 189.673 18.8937 228 26.4511V116.994C227.559 132.158 224.958 145.898 220.296 160.326C203.07 210.529 162.093 247.826 114.785 269.91C84.3592 253.715 60.1655 234.38 38.0329 208.567C31.1134 204.297 27.4328 204.395 27.0893 194.286C26.4514 175.981 29.1505 158.461 34.107 140.942C38.72 124.649 43.8237 109.387 50.2034 93.7322C54.8655 82.347 58.9387 71.4034 62.9137 59.8218C64.2878 55.8467 66.8396 52.4606 70.3239 50.105L85.488 39.7503C93.5852 34.2049 102.32 30.0336 111.056 25.4697C114 23.8993 117.337 24.0956 119.791 26.4021C121.558 28.0706 124.453 28.2669 126.465 29.2975C133.434 32.8308 139.764 36.4133 146.438 40.6827C147.42 44.805 147.027 49.8106 145.85 54.031C145.359 55.8468 141.482 56.8282 140.01 56.4847C140.942 52.9023 141.629 49.418 138.292 47.7985C139.077 50.105 140.746 53.5893 139.715 55.3069C137.212 59.331 132.649 61.0486 128.575 60.656C131.274 57.319 132.256 53.8838 129.361 50.8902C130.489 55.8468 128.87 59.0366 124.355 60.8523C122.637 61.5394 119.398 61.932 117.583 61.2449C116.061 60.7051 113.559 58.1532 114.197 56.5829L115.472 53.344C115.718 52.6569 114 51.7245 113.068 51.4791C112.479 54.1291 112.724 57.7607 114 59.6746L113.804 59.7236ZM128.379 189.624C138.979 197.181 152.376 199.439 164.351 194.384C172.006 191.145 177.552 184.864 181.281 177.159C162.78 191.783 151.591 192.077 128.379 189.624ZM66.5943 217.547C81.6601 230.944 97.3149 241.839 114.736 251.85C131.078 243.655 145.751 233.447 159.934 221.915C167.344 215.879 173.871 209.597 179.318 201.598C170.583 208.959 162.878 216.026 152.965 221.228C144.966 225.448 136.673 227.117 127.496 226.822C106.639 226.086 86.7639 222.209 66.5943 217.547Z" fill="black"/>
<path d="M128.379 189.624C151.542 192.077 162.78 191.783 181.281 177.159C177.601 184.864 172.006 191.145 164.35 194.384C152.376 199.439 138.979 197.23 128.379 189.624Z" fill="white"/>
</g>
<defs>
<clipPath id="clip0_1_2">
<rect width="228" height="269.959" fill="white"/>
</clipPath>
</defs>
</svg>
