<svg width="1024" height="1024" viewBox="0 0 1024 1024" fill="none" xmlns="http://www.w3.org/2000/svg">
<g clip-path="url(#clip0_1_8)">
<circle cx="512" cy="512" r="512" fill="black"/>
<path d="M511.58 346.32C519.9 358.961 540.429 348.049 554.367 353.343C546.047 372.035 567.008 333.57 581.918 345.239C586.997 349.237 590.562 361.987 588.401 368.253C580.73 379.598 550.693 376.897 527.463 384.892C509.095 391.159 493.212 388.134 475.061 384.136C463.824 381.651 452.587 382.191 441.782 376.357C447.941 384.028 455.612 388.458 465.336 392.888C453.667 415.47 448.157 440.32 454.316 465.387C459.07 484.511 484.893 505.148 482.948 534.753C473.008 558.307 465.553 582.941 470.955 608.872C475.601 587.587 479.923 568.463 488.674 549.555C513.093 496.936 575.111 490.67 615.197 517.141L642.532 535.185C634.645 521.895 624.273 513.684 612.387 504.284C622.652 495.316 633.132 487.536 644.477 480.297C669.436 466.575 696.555 460.201 725.728 463.982V302.345C653.553 287.651 583.755 272.416 513.633 253.184C471.711 264.637 431.734 274.145 389.596 283.113L298.405 302.561V469.601C298.405 497.801 305.212 523.84 310.722 550.311L298.945 605.523C272.798 560.9 260.481 511.955 261.021 460.633V273.065C346.594 256.317 429.357 236.869 512.661 214.828C596.721 236.761 678.62 256.425 763.004 273.065V472.41C762.031 505.796 756.305 536.049 746.041 567.815C708.116 678.346 617.898 760.461 513.741 809.082C446.752 773.427 393.486 730.857 344.757 674.024C329.522 664.624 321.419 664.84 320.662 642.583C319.258 602.282 325.2 563.709 336.113 525.136C346.269 489.265 357.506 455.663 371.552 421.196C381.817 396.129 390.784 372.035 399.536 346.536C402.562 337.784 408.18 330.329 415.851 325.143L449.238 302.345C467.065 290.136 486.297 280.952 505.53 270.904C512.012 267.446 519.36 267.878 524.762 272.956C528.652 276.63 535.026 277.062 539.456 279.331C554.799 287.111 568.737 294.998 583.431 304.398C585.592 313.474 584.728 324.495 582.134 333.787C581.054 337.784 572.518 339.945 569.277 339.189C571.33 331.301 572.842 323.63 565.495 320.065C567.224 325.143 570.898 332.814 568.629 336.596C563.118 345.456 553.07 349.237 544.102 348.373C550.045 341.026 552.206 333.462 545.831 326.872C548.316 337.784 544.75 344.807 534.81 348.805C531.029 350.318 523.898 351.182 519.9 349.669C516.55 348.481 511.04 342.862 512.445 339.405L515.254 332.274C515.794 330.761 512.012 328.708 509.96 328.168C508.663 334.003 509.203 341.998 512.012 346.212L511.58 346.32ZM543.67 632.318C567.008 648.957 596.505 653.928 622.868 642.799C639.723 635.668 651.932 621.838 660.144 604.875C619.41 637.072 594.776 637.721 543.67 632.318ZM407.64 693.797C440.81 723.293 475.277 747.28 513.633 769.321C549.613 751.277 581.918 728.804 613.144 703.413C629.459 690.123 643.829 676.293 655.822 658.682C636.59 674.889 619.627 690.447 597.801 701.9C580.19 711.192 561.93 714.866 541.725 714.217C495.805 712.597 452.047 704.061 407.64 693.797Z" fill="white"/>
<path d="M543.669 632.318C594.667 637.721 619.41 637.072 660.143 604.875C652.04 621.838 639.723 635.668 622.867 642.799C596.504 653.928 567.007 649.065 543.669 632.318Z" fill="white"/>
</g>
<defs>
<clipPath id="clip0_1_8">
<rect width="1024" height="1024" fill="white"/>
</clipPath>
</defs>
</svg>
