<svg width="341" height="55" viewBox="0 0 341 55" fill="none" xmlns="http://www.w3.org/2000/svg">
<g clip-path="url(#clip0_0_3)">
<path d="M76.79 35.66L66.47 10.79H58.41V44.39H65.13V23.07L74.01 44.39H79.38L88.22 23.09V44.39H94.94V10.79H86.92L76.79 35.66Z" fill="black"/>
<path d="M114.57 32.87C114.57 34.89 114.13 36.46 113.25 37.6C112.37 38.74 111.13 39.3 109.53 39.3C108.06 39.3 106.95 38.78 106.22 37.74C105.48 36.7 105.12 35.2 105.12 33.25V20.58H98.45V33.88C98.45 37.46 99.23 40.21 100.8 42.11C102.37 44.01 104.53 44.97 107.28 44.97C109.04 44.97 110.52 44.61 111.72 43.89C112.92 43.17 113.87 42.2 114.58 40.99V44.4H121.3V20.59H114.58V32.88L114.57 32.87Z" fill="black"/>
<path d="M142.82 31.81C142.1 31.3 141.28 30.89 140.37 30.59C139.46 30.29 138.52 30.07 137.56 29.94C137.24 29.88 136.8 29.8 136.24 29.72C135.68 29.64 135.14 29.56 134.61 29.48C134.08 29.4 133.67 29.34 133.39 29.31C131.41 28.96 130.41 28.29 130.41 27.29C130.41 26.68 130.71 26.17 131.32 25.75C131.93 25.33 132.84 25.13 134.06 25.13C135.05 25.13 135.93 25.35 136.7 25.8C137.47 26.25 137.9 26.9 138 27.77H144.48C144.26 25.34 143.24 23.43 141.43 22.06C139.62 20.68 137.15 20 134.01 20C130.87 20 128.55 20.74 126.95 22.21C125.35 23.68 124.55 25.49 124.55 27.63C124.55 29.04 124.87 30.23 125.51 31.21C126.15 32.19 127.02 32.97 128.13 33.56C129.23 34.15 130.46 34.58 131.8 34.83C132.28 34.93 132.91 35.04 133.7 35.17C134.48 35.3 135.1 35.39 135.55 35.46C136.8 35.59 137.68 35.82 138.19 36.16C138.7 36.5 138.96 36.94 138.96 37.48C138.96 38.15 138.62 38.72 137.93 39.18C137.24 39.64 136.24 39.88 134.93 39.88C133.75 39.88 132.72 39.6 131.86 39.04C131 38.48 130.45 37.74 130.23 36.81H123.37C123.63 39.24 124.78 41.21 126.83 42.71C128.88 44.21 131.5 44.97 134.7 44.97C136.97 44.97 138.88 44.63 140.44 43.96C141.99 43.29 143.17 42.34 143.97 41.13C144.77 39.91 145.17 38.51 145.17 36.91C145.17 35.69 144.96 34.67 144.55 33.84C144.13 33.01 143.57 32.34 142.85 31.82L142.82 31.81Z" fill="black"/>
<path d="M156.86 26.58C157.72 26.04 158.68 25.76 159.74 25.76C160.92 25.76 161.95 26.06 162.81 26.67C163.67 27.28 164.25 28.09 164.54 29.12H171.64C171.03 26.27 169.67 24.04 167.56 22.42C165.45 20.8 162.86 20 159.78 20C157.32 20 155.14 20.54 153.25 21.61C151.36 22.68 149.88 24.15 148.81 26.03C147.74 27.91 147.2 30.05 147.2 32.49C147.2 34.93 147.74 37.07 148.81 38.95C149.88 40.82 151.36 42.29 153.25 43.37C155.14 44.44 157.31 44.98 159.78 44.98C162.85 44.98 165.45 44.15 167.58 42.48C169.71 40.82 171.06 38.61 171.64 35.86H164.54C164.25 36.95 163.68 37.79 162.81 38.38C161.95 38.97 160.92 39.27 159.74 39.27C158.68 39.27 157.72 39 156.86 38.45C156 37.91 155.32 37.12 154.82 36.1C154.32 35.08 154.08 33.88 154.08 32.5C154.08 31.12 154.33 29.89 154.82 28.9C155.32 27.91 156 27.14 156.86 26.6V26.58Z" fill="black"/>
<path d="M181.05 9.83H174.33V44.39H181.05V9.83Z" fill="black"/>
<path d="M202.6 21.54C200.78 20.52 198.68 20 196.31 20C193.81 20 191.62 20.54 189.73 21.63C187.84 22.72 186.38 24.22 185.34 26.14C184.3 28.06 183.78 30.25 183.78 32.72C183.78 35.19 184.31 37.24 185.36 39.08C186.42 40.92 187.89 42.36 189.78 43.4C191.67 44.44 193.84 44.96 196.31 44.96C198.23 44.96 199.97 44.6 201.52 43.88C203.07 43.16 204.38 42.18 205.46 40.95C206.53 39.72 207.29 38.33 207.74 36.8H200.88C200.46 37.6 199.87 38.25 199.1 38.74C198.33 39.24 197.39 39.48 196.27 39.48C195.15 39.48 194.1 39.23 193.22 38.74C192.34 38.24 191.65 37.54 191.16 36.63C190.76 35.89 190.53 35.05 190.45 34.11H208.32C208.38 33.69 208.42 33.29 208.42 32.89V31.81C208.42 29.54 207.91 27.51 206.88 25.74C205.85 23.97 204.43 22.56 202.61 21.54H202.6ZM190.59 30.08C190.72 29.43 190.92 28.84 191.2 28.33C191.73 27.35 192.45 26.63 193.36 26.15C194.27 25.67 195.27 25.43 196.36 25.43C197.8 25.43 199.01 25.85 199.98 26.7C200.96 27.55 201.49 28.68 201.59 30.08H190.59Z" fill="black"/>
<path d="M227.75 30.75H236.87C236.87 33.34 236.1 35.37 234.57 36.82C233.03 38.28 230.94 39 228.28 39C225.98 39 224.04 38.56 222.47 37.68C220.9 36.8 219.71 35.53 218.89 33.86C218.07 32.2 217.67 30.2 217.67 27.86C217.67 25.52 218.06 23.45 218.85 21.74C219.63 20.03 220.78 18.71 222.28 17.78C223.78 16.85 225.61 16.39 227.75 16.39C229.73 16.39 231.35 16.79 232.6 17.59C233.85 18.39 234.73 19.51 235.24 20.95H242.73C241.96 17.59 240.27 14.96 237.67 13.05C235.06 11.15 231.76 10.19 227.76 10.19C224.27 10.19 221.26 10.93 218.74 12.42C216.21 13.91 214.27 15.98 212.91 18.64C211.55 21.3 210.87 24.35 210.87 27.81C210.87 31.27 211.55 34.23 212.91 36.81C214.27 39.39 216.25 41.39 218.84 42.81C221.43 44.23 224.57 44.95 228.25 44.95C231.23 44.95 233.87 44.34 236.19 43.13C238.51 41.91 240.34 40.1 241.69 37.68C243.03 35.26 243.71 32.26 243.71 28.68V25.75H227.77V30.74L227.75 30.75Z" fill="black"/>
<path d="M262.07 32.87C262.07 34.89 261.63 36.46 260.75 37.6C259.87 38.74 258.63 39.3 257.03 39.3C255.56 39.3 254.45 38.78 253.72 37.74C252.98 36.7 252.62 35.2 252.62 33.25V20.58H245.95V33.88C245.95 37.46 246.73 40.21 248.3 42.11C249.87 44.01 252.03 44.97 254.78 44.97C256.54 44.97 258.02 44.61 259.22 43.89C260.42 43.17 261.37 42.2 262.08 40.99V44.4H268.8V20.59H262.08V32.88L262.07 32.87Z" fill="black"/>
<path d="M295.19 38.53C294.87 38.37 294.64 37.99 294.49 37.4C294.35 36.81 294.27 35.9 294.27 34.69V29.75C294.27 26.61 293.24 24.21 291.17 22.53C289.11 20.85 286.28 20.01 282.7 20.01C280.88 20.01 279.21 20.32 277.71 20.95C276.21 21.57 274.98 22.48 274.04 23.66C273.1 24.84 272.53 26.28 272.34 27.98H278.63C278.85 26.96 279.35 26.25 280.12 25.87C280.89 25.49 281.75 25.29 282.71 25.29C284.12 25.29 285.28 25.64 286.19 26.35C287.1 27.05 287.56 28.19 287.56 29.76V30.91C286.95 30.72 286.16 30.53 285.18 30.33C284.2 30.14 283.03 30.04 281.65 30.04C278.77 30.04 276.44 30.72 274.67 32.08C272.89 33.44 272.01 35.35 272.01 37.82C272.01 39.13 272.35 40.33 273.04 41.42C273.73 42.51 274.71 43.37 275.99 44.01C277.27 44.65 278.79 44.97 280.55 44.97C282.31 44.97 283.75 44.62 285.06 43.91C286.37 43.21 287.44 42.31 288.28 41.22C288.82 42.47 289.67 43.31 290.82 43.74C291.97 44.17 293.41 44.39 295.14 44.39H296.63V38.77H296.44C295.93 38.77 295.51 38.69 295.19 38.53ZM286.17 37.59C285.72 38.31 285.17 38.87 284.51 39.27C283.85 39.67 283.06 39.87 282.13 39.87C281.11 39.87 280.29 39.62 279.68 39.13C279.07 38.63 278.77 38 278.77 37.23C278.77 36.3 279.12 35.59 279.83 35.09C280.53 34.59 281.38 34.35 282.37 34.35C283.23 34.35 284.09 34.44 284.94 34.61C285.79 34.79 286.53 34.97 287.17 35.16C286.95 36.06 286.61 36.86 286.16 37.58L286.17 37.59Z" fill="black"/>
<path d="M314.68 20.34H311.75C310.53 20.34 309.45 20.68 308.49 21.37C307.53 22.06 306.73 22.99 306.09 24.18V20.58H299.37V44.39H306.09V34.31C306.09 32.58 306.26 31.12 306.59 29.92C306.93 28.72 307.46 27.82 308.2 27.21C308.94 26.6 309.9 26.3 311.08 26.3H314.68V20.35V20.34Z" fill="black"/>
<path d="M333.88 9.83V23.65C333.08 22.5 332.03 21.6 330.74 20.96C329.45 20.32 327.92 20 326.16 20C323.95 20 321.96 20.54 320.18 21.61C318.4 22.68 317 24.15 315.98 26.03C314.96 27.9 314.44 30.04 314.44 32.44C314.44 34.84 314.95 36.94 315.98 38.85C317 40.75 318.4 42.25 320.18 43.34C321.96 44.43 323.95 44.97 326.16 44.97C328.11 44.97 329.7 44.59 330.94 43.82C332.17 43.05 333.15 42.16 333.89 41.13V44.39H340.61V9.83H333.89H333.88ZM333.25 35.87C332.71 36.88 331.95 37.67 330.99 38.25C330.03 38.83 328.93 39.11 327.68 39.11C326.43 39.11 325.37 38.82 324.39 38.25C323.41 37.67 322.65 36.88 322.11 35.87C321.57 34.86 321.29 33.72 321.29 32.44C321.29 31.16 321.56 30.03 322.11 29.06C322.65 28.08 323.41 27.31 324.39 26.73C325.37 26.15 326.46 25.87 327.68 25.87C328.9 25.87 330.03 26.16 330.99 26.73C331.95 27.3 332.7 28.09 333.25 29.08C333.79 30.07 334.07 31.21 334.07 32.49C334.07 33.77 333.8 34.87 333.25 35.87Z" fill="black"/>
<path d="M0.01 5.39V22.75C-0.06 27.5 1.09 32.03 3.51 36.16L4.6 31.05C4.09 28.6 3.45 26.19 3.46 23.58V8.12L11.9 6.32C15.79 5.49 19.49 4.61 23.38 3.55C29.86 5.33 36.33 6.74 43 8.1V23.06C40.3 22.71 37.8 23.29 35.49 24.57C34.44 25.24 33.48 25.96 32.52 26.79C33.62 27.66 34.57 28.43 35.31 29.65L32.78 27.98C29.07 25.53 23.33 26.11 21.07 30.98C20.26 32.72 19.85 34.5 19.43 36.47C18.94 34.07 19.62 31.8 20.54 29.61C20.72 26.87 18.33 24.97 17.89 23.19C17.31 20.87 17.83 18.56 18.91 16.48C18.01 16.07 17.3 15.67 16.73 14.95C17.72 15.49 18.77 15.44 19.81 15.67C21.49 16.04 22.96 16.32 24.66 15.74C26.81 15 29.59 15.25 30.3 14.2C30.49 13.61 30.17 12.43 29.7 12.07C28.32 10.99 26.38 14.55 27.15 12.82C25.87 12.34 23.96 13.34 23.19 12.17C22.93 11.78 22.88 11.04 23 10.5C23.19 10.55 23.54 10.74 23.49 10.88L23.23 11.54C23.11 11.85 23.61 12.37 23.92 12.49C24.29 12.63 24.95 12.55 25.3 12.41C26.22 12.04 26.55 11.39 26.32 10.38C26.92 10.99 26.71 11.69 26.16 12.37C26.99 12.45 27.93 12.1 28.43 11.28C28.64 10.93 28.3 10.22 28.14 9.75C28.82 10.09 28.68 10.8 28.49 11.52C28.78 11.59 29.57 11.39 29.68 11.02C29.92 10.15 30 9.14 29.8 8.3C28.44 7.43 27.15 6.7 25.73 5.98C25.32 5.77 24.72 5.73 24.37 5.39C23.88 4.92 23.2 4.88 22.59 5.2C20.81 6.13 19.03 6.98 17.38 8.11L14.29 10.22C13.58 10.7 13.06 11.39 12.78 12.2C11.98 14.56 11.14 16.79 10.19 19.11C8.89 22.29 7.85 25.41 6.91 28.73C5.9 32.3 5.35 35.87 5.48 39.6C5.55 41.65 6.31 41.64 7.71 42.51C12.23 47.76 17.15 51.7 23.35 55.01C32.99 50.51 41.34 42.91 44.85 32.68C45.8 29.74 46.34 26.94 46.41 23.85V5.39C38.61 3.85 31.03 2.03 23.25 0C15.58 2.04 7.92 3.84 0.01 5.39Z" fill="black"/>
</g>
<defs>
<clipPath id="clip0_0_3">
<rect width="340.6" height="55.01" fill="white"/>
</clipPath>
</defs>
</svg>
